<svg xmlns="http://www.w3.org/2000/svg" xmlns:xlink="http://www.w3.org/1999/xlink" width="50" zoomAndPan="magnify" viewBox="0 0 37.5 37.499999" height="50" preserveAspectRatio="xMidYMid meet" version="1.0"><defs><clipPath id="3ed1d1cedb"><path d="M 0 0 L 37.007812 0 L 37.007812 37 L 0 37 Z M 0 0 " clip-rule="nonzero"/></clipPath><clipPath id="b1736ce4d0"><path d="M 10 7 L 27 7 L 27 37.007812 L 10 37.007812 Z M 10 7 " clip-rule="nonzero"/></clipPath></defs><g clip-path="url(#3ed1d1cedb)"><path fill="#1877f2" d="M 37.003906 18.503906 C 37.003906 8.285156 28.722656 0 18.503906 0 C 8.285156 0 0 8.285156 0 18.503906 C 0 27.738281 6.765625 35.394531 15.613281 36.78125 L 15.613281 23.851562 L 10.914062 23.851562 L 10.914062 18.503906 L 15.613281 18.503906 L 15.613281 14.425781 C 15.613281 9.789062 18.375 7.230469 22.601562 7.230469 C 24.625 7.230469 26.742188 7.589844 26.742188 7.589844 L 26.742188 12.144531 L 24.410156 12.144531 C 22.109375 12.144531 21.394531 13.570312 21.394531 15.03125 L 21.394531 18.503906 L 26.527344 18.503906 L 25.707031 23.851562 L 21.394531 23.851562 L 21.394531 36.78125 C 30.238281 35.394531 37.003906 27.738281 37.003906 18.503906 " fill-opacity="1" fill-rule="nonzero"/></g><g clip-path="url(#b1736ce4d0)"><path fill="#ffffff" d="M 25.707031 23.851562 L 26.527344 18.503906 L 21.394531 18.503906 L 21.394531 15.03125 C 21.394531 13.570312 22.109375 12.144531 24.410156 12.144531 L 26.742188 12.144531 L 26.742188 7.589844 C 26.742188 7.589844 24.625 7.230469 22.601562 7.230469 C 18.375 7.230469 15.613281 9.789062 15.613281 14.425781 L 15.613281 18.503906 L 10.914062 18.503906 L 10.914062 23.851562 L 15.613281 23.851562 L 15.613281 36.78125 C 16.554688 36.929688 17.519531 37.007812 18.503906 37.007812 C 19.488281 37.007812 20.453125 36.929688 21.394531 36.78125 L 21.394531 23.851562 L 25.707031 23.851562 " fill-opacity="1" fill-rule="nonzero"/></g></svg>