<svg xmlns="http://www.w3.org/2000/svg" xmlns:xlink="http://www.w3.org/1999/xlink" width="50" zoomAndPan="magnify" viewBox="0 0 37.5 37.499999" height="50" preserveAspectRatio="xMidYMid meet" version="1.0"><path fill="#1ed760" d="M 29.28125 16.4375 C 23.410156 12.945312 13.71875 12.625 8.109375 14.328125 C 7.210938 14.601562 6.257812 14.09375 5.984375 13.191406 C 5.710938 12.292969 6.21875 11.339844 7.121094 11.066406 C 13.558594 9.113281 24.261719 9.488281 31.023438 13.503906 C 31.832031 13.984375 32.097656 15.03125 31.617188 15.839844 C 31.136719 16.648438 30.089844 16.917969 29.28125 16.4375 Z M 29.089844 21.601562 C 28.679688 22.273438 27.804688 22.480469 27.136719 22.070312 C 22.238281 19.058594 14.769531 18.1875 8.976562 19.945312 C 8.226562 20.175781 7.433594 19.75 7.203125 19 C 6.976562 18.25 7.402344 17.457031 8.152344 17.226562 C 14.769531 15.21875 23 16.191406 28.625 19.648438 C 29.289062 20.0625 29.5 20.9375 29.089844 21.601562 Z M 26.859375 26.566406 C 26.53125 27.101562 25.832031 27.269531 25.296875 26.941406 C 21.019531 24.328125 15.632812 23.738281 9.289062 25.1875 C 8.679688 25.324219 8.070312 24.941406 7.929688 24.332031 C 7.789062 23.71875 8.171875 23.109375 8.785156 22.972656 C 15.726562 21.386719 21.679688 22.066406 26.484375 25.003906 C 27.019531 25.332031 27.1875 26.03125 26.859375 26.566406 Z M 18.503906 0.28125 C 8.4375 0.28125 0.277344 8.4375 0.277344 18.503906 C 0.277344 28.570312 8.4375 36.726562 18.503906 36.726562 C 28.566406 36.726562 36.726562 28.570312 36.726562 18.503906 C 36.726562 8.4375 28.566406 0.28125 18.503906 0.28125 " fill-opacity="1" fill-rule="nonzero"/></svg>