<svg xmlns="http://www.w3.org/2000/svg" xmlns:xlink="http://www.w3.org/1999/xlink" width="50" zoomAndPan="magnify" viewBox="0 0 37.5 37.499999" height="50" preserveAspectRatio="xMidYMid meet" version="1.0"><defs><clipPath id="af316fc730"><path d="M 0 5.511719 L 37 5.511719 L 37 31.417969 L 0 31.417969 Z M 0 5.511719 " clip-rule="nonzero"/></clipPath></defs><g clip-path="url(#af316fc730)"><path fill="#ed1d24" d="M 36.164062 9.558594 C 35.742188 7.964844 34.492188 6.710938 32.90625 6.285156 C 30.03125 5.511719 18.503906 5.511719 18.503906 5.511719 C 18.503906 5.511719 6.976562 5.511719 4.101562 6.285156 C 2.511719 6.710938 1.265625 7.964844 0.839844 9.558594 C 0.0703125 12.441406 0.0703125 18.464844 0.0703125 18.464844 C 0.0703125 18.464844 0.0703125 24.484375 0.839844 27.371094 C 1.265625 28.964844 2.511719 30.21875 4.101562 30.644531 C 6.976562 31.417969 18.503906 31.417969 18.503906 31.417969 C 18.503906 31.417969 30.03125 31.417969 32.90625 30.644531 C 34.492188 30.21875 35.742188 28.964844 36.164062 27.371094 C 36.933594 24.484375 36.933594 18.464844 36.933594 18.464844 C 36.933594 18.464844 36.933594 12.441406 36.164062 9.558594 " fill-opacity="1" fill-rule="nonzero"/></g><path fill="#ffffff" d="M 14.734375 23.929688 L 24.367188 18.464844 L 14.734375 12.996094 Z M 14.734375 23.929688 " fill-opacity="1" fill-rule="nonzero"/></svg>