<svg xmlns="http://www.w3.org/2000/svg" xmlns:xlink="http://www.w3.org/1999/xlink" width="150" zoomAndPan="magnify" viewBox="0 0 112.5 112.499997" height="150" preserveAspectRatio="xMidYMid meet" version="1.0"><defs><g/></defs><g fill="#ffffff" fill-opacity="1"><g transform="translate(16.979312, 56.423537)"><g><path d="M 8.203125 -13.5 L 9.859375 -13.5 C 11.484375 -13.5 12.679688 -13.769531 13.453125 -14.3125 C 14.234375 -14.851562 14.625 -15.707031 14.625 -16.875 C 14.625 -18.019531 14.226562 -18.835938 13.4375 -19.328125 C 12.644531 -19.816406 11.421875 -20.0625 9.765625 -20.0625 L 8.203125 -20.0625 Z M 8.203125 -9.3125 L 8.203125 0 L 3.0625 0 L 3.0625 -24.265625 L 10.125 -24.265625 C 13.425781 -24.265625 15.867188 -23.664062 17.453125 -22.46875 C 19.035156 -21.269531 19.828125 -19.445312 19.828125 -17 C 19.828125 -15.570312 19.429688 -14.300781 18.640625 -13.1875 C 17.859375 -12.070312 16.75 -11.203125 15.3125 -10.578125 C 18.957031 -5.117188 21.335938 -1.59375 22.453125 0 L 16.734375 0 L 10.9375 -9.3125 Z M 8.203125 -9.3125 "/></g></g></g><g fill="#ffffff" fill-opacity="1"><g transform="translate(39.416917, 56.423537)"><g><path d="M 3.0625 0 L 3.0625 -24.265625 L 8.203125 -24.265625 L 8.203125 0 Z M 3.0625 0 "/></g></g></g><g fill="#ffffff" fill-opacity="1"><g transform="translate(50.668912, 56.423537)"><g><path d="M 13.359375 -20.34375 C 11.421875 -20.34375 9.921875 -19.613281 8.859375 -18.15625 C 7.796875 -16.695312 7.265625 -14.664062 7.265625 -12.0625 C 7.265625 -6.65625 9.296875 -3.953125 13.359375 -3.953125 C 15.066406 -3.953125 17.132812 -4.378906 19.5625 -5.234375 L 19.5625 -0.90625 C 17.5625 -0.0820312 15.335938 0.328125 12.890625 0.328125 C 9.359375 0.328125 6.65625 -0.738281 4.78125 -2.875 C 2.90625 -5.019531 1.96875 -8.097656 1.96875 -12.109375 C 1.96875 -14.628906 2.425781 -16.835938 3.34375 -18.734375 C 4.269531 -20.628906 5.59375 -22.082031 7.3125 -23.09375 C 9.03125 -24.113281 11.046875 -24.625 13.359375 -24.625 C 15.722656 -24.625 18.09375 -24.050781 20.46875 -22.90625 L 18.8125 -18.734375 C 17.90625 -19.160156 16.988281 -19.535156 16.0625 -19.859375 C 15.144531 -20.179688 14.242188 -20.34375 13.359375 -20.34375 Z M 13.359375 -20.34375 "/></g></g></g><g fill="#ffffff" fill-opacity="1"><g transform="translate(72.32656, 56.423537)"><g><path d="M 22.578125 0 L 16.734375 0 L 10.375 -10.234375 L 8.203125 -8.671875 L 8.203125 0 L 3.0625 0 L 3.0625 -24.265625 L 8.203125 -24.265625 L 8.203125 -13.171875 L 10.234375 -16.015625 L 16.796875 -24.265625 L 22.515625 -24.265625 L 14.046875 -13.53125 Z M 22.578125 0 "/></g></g></g><g fill="#ffffff" fill-opacity="1"><g transform="translate(14.104899, 78.442607)"><g><path d="M 1.84375 -14.59375 L 6.375 -14.59375 C 8.445312 -14.59375 9.953125 -14.296875 10.890625 -13.703125 C 11.828125 -13.117188 12.296875 -12.1875 12.296875 -10.90625 C 12.296875 -10.03125 12.085938 -9.3125 11.671875 -8.75 C 11.265625 -8.195312 10.722656 -7.863281 10.046875 -7.75 L 10.046875 -7.65625 C 10.972656 -7.445312 11.640625 -7.054688 12.046875 -6.484375 C 12.453125 -5.921875 12.65625 -5.171875 12.65625 -4.234375 C 12.65625 -2.898438 12.175781 -1.859375 11.21875 -1.109375 C 10.257812 -0.367188 8.953125 0 7.296875 0 L 1.84375 0 Z M 4.9375 -8.8125 L 6.734375 -8.8125 C 7.566406 -8.8125 8.171875 -8.941406 8.546875 -9.203125 C 8.929688 -9.460938 9.125 -9.894531 9.125 -10.5 C 9.125 -11.050781 8.914062 -11.445312 8.5 -11.6875 C 8.09375 -11.9375 7.445312 -12.0625 6.5625 -12.0625 L 4.9375 -12.0625 Z M 4.9375 -6.359375 L 4.9375 -2.5625 L 6.953125 -2.5625 C 7.804688 -2.5625 8.4375 -2.722656 8.84375 -3.046875 C 9.25 -3.367188 9.453125 -3.867188 9.453125 -4.546875 C 9.453125 -5.753906 8.582031 -6.359375 6.84375 -6.359375 Z M 4.9375 -6.359375 "/></g></g></g><g fill="#ffffff" fill-opacity="1"><g transform="translate(27.844423, 78.442607)"><g><path d="M 10.78125 0 L 9.71875 -3.46875 L 4.390625 -3.46875 L 3.328125 0 L 0 0 L 5.15625 -14.65625 L 8.9375 -14.65625 L 14.109375 0 Z M 8.984375 -6.078125 C 8.003906 -9.222656 7.453125 -11 7.328125 -11.40625 C 7.203125 -11.820312 7.113281 -12.148438 7.0625 -12.390625 C 6.84375 -11.535156 6.210938 -9.429688 5.171875 -6.078125 Z M 8.984375 -6.078125 "/></g></g></g><g fill="#ffffff" fill-opacity="1"><g transform="translate(41.953426, 78.442607)"><g><path d="M 7.46875 0 L 4.375 0 L 4.375 -12.03125 L 0.40625 -12.03125 L 0.40625 -14.59375 L 11.4375 -14.59375 L 11.4375 -12.03125 L 7.46875 -12.03125 Z M 7.46875 0 "/></g></g></g><g fill="#ffffff" fill-opacity="1"><g transform="translate(53.795777, 78.442607)"><g><path d="M 1.84375 0 L 1.84375 -14.59375 L 4.9375 -14.59375 L 4.9375 0 Z M 1.84375 0 "/></g></g></g><g fill="#ffffff" fill-opacity="1"><g transform="translate(60.565688, 78.442607)"><g><path d="M 10.453125 -4.046875 C 10.453125 -2.734375 9.976562 -1.695312 9.03125 -0.9375 C 8.082031 -0.175781 6.765625 0.203125 5.078125 0.203125 C 3.515625 0.203125 2.132812 -0.0859375 0.9375 -0.671875 L 0.9375 -3.5625 C 1.925781 -3.113281 2.757812 -2.800781 3.4375 -2.625 C 4.125 -2.445312 4.75 -2.359375 5.3125 -2.359375 C 5.988281 -2.359375 6.507812 -2.488281 6.875 -2.75 C 7.238281 -3.007812 7.421875 -3.394531 7.421875 -3.90625 C 7.421875 -4.1875 7.335938 -4.4375 7.171875 -4.65625 C 7.015625 -4.882812 6.78125 -5.101562 6.46875 -5.3125 C 6.164062 -5.519531 5.535156 -5.847656 4.578125 -6.296875 C 3.691406 -6.722656 3.023438 -7.128906 2.578125 -7.515625 C 2.128906 -7.898438 1.769531 -8.347656 1.5 -8.859375 C 1.238281 -9.367188 1.109375 -9.96875 1.109375 -10.65625 C 1.109375 -11.945312 1.546875 -12.960938 2.421875 -13.703125 C 3.296875 -14.441406 4.503906 -14.8125 6.046875 -14.8125 C 6.804688 -14.8125 7.53125 -14.71875 8.21875 -14.53125 C 8.914062 -14.351562 9.640625 -14.101562 10.390625 -13.78125 L 9.390625 -11.375 C 8.609375 -11.695312 7.960938 -11.921875 7.453125 -12.046875 C 6.941406 -12.171875 6.441406 -12.234375 5.953125 -12.234375 C 5.367188 -12.234375 4.921875 -12.097656 4.609375 -11.828125 C 4.296875 -11.554688 4.140625 -11.195312 4.140625 -10.75 C 4.140625 -10.476562 4.203125 -10.238281 4.328125 -10.03125 C 4.453125 -9.832031 4.648438 -9.640625 4.921875 -9.453125 C 5.203125 -9.265625 5.859375 -8.921875 6.890625 -8.421875 C 8.253906 -7.773438 9.1875 -7.125 9.6875 -6.46875 C 10.195312 -5.8125 10.453125 -5.003906 10.453125 -4.046875 Z M 10.453125 -4.046875 "/></g></g></g><g fill="#ffffff" fill-opacity="1"><g transform="translate(71.828902, 78.442607)"><g><path d="M 7.46875 0 L 4.375 0 L 4.375 -12.03125 L 0.40625 -12.03125 L 0.40625 -14.59375 L 11.4375 -14.59375 L 11.4375 -12.03125 L 7.46875 -12.03125 Z M 7.46875 0 "/></g></g></g><g fill="#ffffff" fill-opacity="1"><g transform="translate(83.671254, 78.442607)"><g><path d="M 10.78125 0 L 9.71875 -3.46875 L 4.390625 -3.46875 L 3.328125 0 L 0 0 L 5.15625 -14.65625 L 8.9375 -14.65625 L 14.109375 0 Z M 8.984375 -6.078125 C 8.003906 -9.222656 7.453125 -11 7.328125 -11.40625 C 7.203125 -11.820312 7.113281 -12.148438 7.0625 -12.390625 C 6.84375 -11.535156 6.210938 -9.429688 5.171875 -6.078125 Z M 8.984375 -6.078125 "/></g></g></g></svg>