<svg xmlns="http://www.w3.org/2000/svg" xmlns:xlink="http://www.w3.org/1999/xlink" width="500" zoomAndPan="magnify" viewBox="0 0 375 89.999999" height="120" preserveAspectRatio="xMidYMid meet" version="1.0"><path stroke-linecap="butt" transform="matrix(1.249267, 0, 0, 1.249267, 71.796392, 16.269056)" fill="none" stroke-linejoin="miter" d="M 5.578657 8.023835 L 5.431696 8.023835 C 5.359779 8.023835 5.359779 8.023835 5.394174 8.023835 L 5.431696 8.023835 C 5.431696 8.023835 5.394174 8.05823 5.284735 8.05823 C 5.103379 8.095752 4.99394 8.133274 4.922022 8.133274 C 4.775061 8.205191 4.665622 8.277109 4.521788 8.352153 C 4.374827 8.461592 4.265387 8.571031 4.19347 8.642948 C 4.046509 8.789909 3.974592 8.899348 3.93707 9.043183 C 3.865153 9.190144 3.790109 9.337105 3.755714 9.480939 C 3.718192 19.943324 3.718192 27.782295 3.718192 33.032248 C 3.718192 33.394961 3.827631 33.723279 4.118426 34.017201 C 4.374827 34.307996 4.703144 34.489353 5.140901 34.598792 C 5.688097 34.745753 6.19777 34.708231 6.635527 34.417436 C 7.073284 34.123513 7.326557 33.613839 7.435996 32.885287 L 7.435996 21.80379 C 7.435996 21.328511 7.654875 20.965798 8.092631 20.671876 C 8.530388 20.418603 8.858706 20.671876 9.077584 21.403555 C 10.644127 26.797343 11.847958 30.843465 12.648428 33.541922 L 12.723472 33.760801 C 12.723472 33.832718 12.757867 33.907762 12.832911 33.979679 L 13.123706 34.342392 L 13.489546 34.636314 C 13.598985 34.708231 13.742819 34.780148 13.927302 34.780148 C 14.071137 34.855192 14.218098 34.889587 14.361932 34.889587 L 17.097912 34.889587 C 17.169829 34.889587 17.279268 34.889587 17.351185 34.855192 C 17.426229 34.855192 17.498146 34.855192 17.570063 34.81767 C 17.717025 34.780148 17.863986 34.708231 18.00782 34.636314 C 18.154781 34.56127 18.26422 34.489353 18.37366 34.379914 C 18.483099 34.307996 18.592538 34.161035 18.664455 34.017201 C 18.736372 33.907762 18.811416 33.760801 18.883333 33.613839 C 20.415482 28.363886 21.544269 24.427203 22.347865 21.766268 C 22.491699 21.328511 22.785621 21.075238 23.257773 20.965798 C 23.69553 20.890754 23.914408 21.184677 23.986325 21.80379 L 23.986325 53.847578 C 23.986325 53.957017 23.986325 54.028934 24.023847 54.103978 C 24.133287 54.466691 24.424082 54.757487 24.899361 54.904448 C 25.118239 55.051409 25.409035 55.085804 25.69983 55.085804 C 25.918708 55.085804 26.137587 55.051409 26.393987 54.976365 C 26.866139 54.866926 27.194456 54.648047 27.413335 54.357252 C 27.597818 54.066456 27.707257 53.775661 27.707257 53.481739 L 27.707257 9.662296 L 27.632213 9.446544 C 27.560296 9.299583 27.522774 9.152622 27.450857 9.008788 C 27.37894 8.861826 27.2695 8.752387 27.194456 8.605426 C 27.085017 8.533509 26.975578 8.42407 26.831744 8.314631 C 26.684783 8.242713 26.575343 8.205191 26.428382 8.133274 C 26.284548 8.095752 26.103192 8.05823 25.95623 8.05823 C 25.809269 8.05823 25.665435 8.05823 25.518474 8.05823 C 24.789922 8.05823 24.242726 8.023835 23.914408 8.023835 L 23.658008 8.023835 L 23.43913 8.095752 C 23.295295 8.167669 23.148334 8.205191 23.0045 8.277109 C 22.857539 8.352153 22.748099 8.42407 22.63866 8.533509 C 22.491699 8.642948 22.419782 8.752387 22.347865 8.899348 C 22.272821 9.043183 22.200904 9.152622 22.128986 9.299583 C 19.796369 17.17295 18.082864 23.042016 16.95095 26.944304 C 16.660155 27.672856 16.222398 28.001173 15.675202 27.891734 C 15.093611 27.782295 14.727772 27.453978 14.580811 26.906782 C 12.285715 19.105333 10.57221 13.273788 9.443423 9.3715 C 9.405901 9.299583 9.368379 9.227666 9.368379 9.118227 C 9.333984 9.043183 9.296462 9.008788 9.25894 8.933744 C 9.149501 8.824304 9.040062 8.714865 8.930623 8.571031 C 8.821184 8.461592 8.711744 8.352153 8.602305 8.277109 C 8.458471 8.205191 8.31151 8.167669 8.164549 8.095752 C 8.020714 8.095752 7.839358 8.05823 7.692397 8.023835 Z M 51.255439 -9.220651 C 51.255439 -9.658408 51.108478 -9.986725 50.817682 -10.239999 C 50.489365 -10.458877 50.051608 -10.568316 49.46689 -10.568316 C 48.919695 -10.568316 48.485065 -10.424482 48.156747 -10.168081 C 47.790908 -9.877286 47.609551 -9.439529 47.572029 -8.892333 C 47.534507 7.439117 47.534507 19.652528 47.534507 27.819817 L 47.534507 28.001173 C 47.534507 28.073091 47.534507 28.145008 47.572029 28.291969 C 47.534507 28.620286 47.425068 28.948604 47.243712 29.314443 C 47.062356 29.677156 46.77156 30.005474 46.405721 30.296269 C 46.005486 30.624587 45.530207 30.880987 44.983011 31.027948 C 44.40142 31.209304 43.854225 31.281222 43.269507 31.281222 C 42.650394 31.281222 42.068803 31.209304 41.521607 31.062343 C 40.936889 30.918509 40.427215 30.734026 40.061376 30.44323 C 39.698663 30.18683 39.370346 29.858512 39.151467 29.423883 C 38.895067 29.020521 38.785628 28.401408 38.785628 27.563417 L 38.785628 9.990613 C 38.785628 9.73734 38.641793 9.480939 38.422915 9.227666 C 38.166515 8.971266 37.76628 8.824304 37.181562 8.752387 C 36.599971 8.68047 36.090297 8.789909 35.724458 9.080705 C 35.358618 9.3715 35.13974 9.699818 35.067823 10.137574 L 35.067823 27.563417 C 35.067823 28.876687 35.324223 30.077391 35.871419 31.099865 C 36.415488 32.119213 37.109645 32.922809 37.947636 33.5044 C 38.751233 34.089118 39.623619 34.489353 40.574176 34.670709 C 41.484085 34.889587 42.39712 34.999027 43.269507 34.999027 C 44.216937 34.999027 45.167495 34.855192 46.114925 34.56127 C 47.062356 34.307996 47.900347 33.87024 48.703943 33.251127 C 49.432495 32.666409 50.051608 31.900335 50.561282 30.952904 C 50.999039 30.077391 51.255439 29.12996 51.255439 28.073091 Z M 43.926142 0.98846 C 43.707263 0.913416 43.525907 0.841499 43.378946 0.841499 C 43.235112 0.841499 43.08815 0.879021 42.941189 0.950938 C 42.578477 1.097899 42.359598 1.316778 42.212637 1.607573 C 42.068803 1.860847 41.88432 2.226686 41.665441 2.73636 C 41.521607 3.102199 41.302729 3.649395 41.011933 4.449865 C 40.864972 4.815704 40.793055 5.144022 40.793055 5.3629 C 40.793055 5.616173 40.864972 5.763135 41.046328 5.835052 C 41.118245 5.910096 41.227685 5.910096 41.337124 5.910096 C 41.556002 5.910096 41.812402 5.763135 42.068803 5.397295 C 42.359598 4.925143 42.759833 4.706265 43.235112 4.706265 L 44.51086 4.706265 C 44.801655 4.743787 45.020533 4.634348 45.167495 4.377947 C 45.276934 4.159069 45.45829 3.758834 45.677168 3.249161 C 45.749086 3.064677 45.821003 2.883321 45.821003 2.701965 C 45.821003 2.555004 45.786608 2.408042 45.749086 2.264208 C 45.605251 1.935891 45.386373 1.67949 45.058055 1.535656 C 44.801655 1.426217 44.435816 1.241734 43.926142 0.98846 Z M 78.593343 10.247014 C 77.97423 9.590379 77.173761 9.080705 76.22633 8.68047 C 75.241378 8.314631 74.109464 8.095752 72.871238 8.095752 C 71.486051 8.095752 70.28222 8.314631 69.22535 8.752387 C 68.130959 9.190144 67.255445 9.771735 66.564415 10.503414 C 65.870258 11.266361 65.398106 12.107479 65.141706 13.017388 C 64.850911 13.964819 64.741471 14.840332 64.888433 15.715845 C 65.032267 16.663276 65.398106 17.463745 65.979697 18.085985 C 66.526893 18.739493 67.146006 19.324211 67.877685 19.833885 C 68.53432 20.343559 69.262872 20.818837 70.028947 21.256594 C 70.791894 21.731873 71.557968 22.166502 72.361564 22.604259 C 73.090116 23.042016 73.818669 23.44225 74.512826 23.880007 C 75.203856 24.317764 75.788574 24.721125 76.260726 25.083838 C 76.698482 25.484073 77.0268 25.81239 77.208156 26.06879 C 77.355117 26.359586 77.427034 26.540942 77.427034 26.687903 L 77.427034 26.797343 C 77.464556 28.035569 77.064322 29.058043 76.260726 29.933556 C 75.385212 30.80907 74.403387 31.209304 73.271473 31.209304 C 72.614838 31.209304 71.995725 31.13426 71.33909 30.990426 C 70.64806 30.843465 69.991425 30.44323 69.406707 29.749073 C 69.297268 29.677156 69.043994 29.386361 68.640633 28.948604 C 68.206003 28.510847 67.658807 27.963651 66.96465 27.235099 C 66.27362 26.506547 65.507546 25.702951 64.632032 24.75552 C 63.756519 23.880007 62.84661 22.932577 61.933575 21.947624 C 61.752219 21.80379 61.570862 21.731873 61.351984 21.656829 C 61.133106 21.584911 60.948623 21.584911 60.767266 21.622433 C 60.148153 21.766268 59.672875 22.166502 59.310162 22.860659 C 59.091284 23.226499 58.981844 23.517294 58.981844 23.770568 C 58.981844 24.06449 59.053762 24.317764 59.27264 24.536642 C 60.185675 25.521595 61.058062 26.469025 61.933575 27.344538 C 62.809088 28.291969 63.575163 29.095565 64.303715 29.824117 C 64.96035 30.552669 65.541941 31.13426 66.017219 31.609539 C 66.454976 32.119213 66.711376 32.338091 66.711376 32.303696 C 67.768246 33.470005 68.934555 34.198557 70.172781 34.489353 C 71.376612 34.81767 72.395959 34.964631 73.271473 34.964631 C 74.694182 34.964631 76.007452 34.598792 77.208156 33.87024 C 78.374465 33.141688 79.325022 32.194257 80.053574 31.027948 C 80.416287 30.405708 80.672687 29.714678 80.891566 28.986126 C 81.110444 28.254447 81.182361 27.525895 81.182361 26.725425 L 81.182361 26.650381 C 81.144839 25.702951 80.891566 24.86496 80.381892 24.136407 C 79.869091 23.407855 79.2875 22.788742 78.630865 22.204024 C 77.97423 21.694351 77.245678 21.184677 76.479604 20.709398 C 75.71353 20.271641 74.947456 19.79949 74.184508 19.361733 C 73.380912 18.923976 72.65236 18.523742 71.958203 18.085985 C 71.229651 17.648228 70.573016 17.244867 70.063342 16.844632 C 69.553668 16.481919 69.187828 16.11608 68.96895 15.825284 C 68.715677 15.534489 68.606237 15.315611 68.606237 15.206171 C 68.53432 14.877854 68.568715 14.512014 68.678155 14.11178 C 68.787594 13.74594 69.006472 13.383228 69.297268 13.05491 C 69.59119 12.760988 70.028947 12.470192 70.573016 12.179397 C 71.120211 11.960518 71.886286 11.813557 72.871238 11.813557 C 73.781147 11.813557 74.437782 11.922996 74.838016 12.069957 C 75.241378 12.251314 75.569695 12.470192 75.822969 12.760988 L 76.589043 13.527062 C 76.807921 13.74594 77.064322 14.039863 77.355117 14.330658 C 77.645913 14.621454 77.936708 14.949771 78.302548 15.315611 C 78.812222 15.85968 79.540774 16.663276 80.563248 17.720145 C 81.510679 18.777015 82.34867 19.652528 83.042827 20.343559 C 83.40554 20.781315 83.91834 20.818837 84.646893 20.49052 C 85.337923 20.199724 85.775679 19.724446 85.994558 19.105333 C 86.03208 18.958371 86.066475 18.814537 86.066475 18.667576 L 86.066475 18.523742 C 86.03208 18.304863 85.957036 18.12038 85.847597 17.901502 C 85.119044 17.17295 84.281053 16.263041 83.296101 15.168649 C 82.276753 14.074258 81.473157 13.273788 80.963483 12.689071 L 79.249978 10.975566 C 79.0311 10.756687 78.849744 10.575331 78.702782 10.393975 C 78.521426 10.247014 78.483904 10.175096 78.593343 10.247014 Z M 97.842129 9.73734 C 97.842129 8.752387 97.21989 8.205191 96.053581 8.133274 L 95.909746 8.133274 C 94.815355 8.133274 94.230637 8.68047 94.15872 9.699818 C 94.121198 20.127807 94.121198 27.929256 94.121198 33.104166 C 94.121198 34.161035 94.705916 34.708231 95.872224 34.708231 L 95.981664 34.708231 C 97.076055 34.708231 97.695168 34.123513 97.842129 32.922809 Z M 120.480403 11.99804 C 120.152085 11.341405 119.420406 10.537809 118.329142 9.590379 C 117.197228 8.642948 115.630684 8.167669 113.660779 8.167669 C 112.678954 8.167669 111.728396 8.314631 110.780966 8.605426 C 109.833535 8.899348 108.958022 9.337105 108.157553 9.918696 C 107.353956 10.503414 106.662926 11.266361 106.153252 12.179397 C 105.568535 13.126827 105.312134 14.183697 105.312134 15.315611 L 105.312134 27.672856 C 105.312134 29.095565 105.640452 30.296269 106.297087 31.318744 C 106.953722 32.338091 107.719796 33.141688 108.595309 33.651361 C 109.395779 34.161035 110.199375 34.489353 110.999844 34.670709 C 111.80344 34.889587 112.531992 34.999027 113.188628 34.999027 L 113.55134 34.999027 C 113.588862 34.999027 113.698301 34.999027 113.845263 34.964631 C 113.770219 34.999027 113.660779 34.999027 113.588862 34.999027 C 113.516945 34.999027 113.479423 34.999027 113.516945 34.999027 L 113.735823 34.999027 C 113.735823 34.999027 113.845263 34.999027 113.989097 34.964631 C 118.838815 34.999027 122.484703 34.999027 124.92676 34.999027 C 125.655312 34.81767 126.055547 34.232952 126.055547 33.251127 L 126.055547 33.141688 C 126.021152 32.119213 125.655312 31.5001 124.92676 31.281222 L 113.441901 31.281222 C 113.369984 31.281222 113.298067 31.318744 113.151106 31.318744 L 113.441901 31.318744 C 113.55134 31.318744 113.588862 31.281222 113.516945 31.281222 L 113.332462 31.281222 C 113.298067 31.281222 113.188628 31.318744 113.041666 31.318744 C 112.897832 31.318744 112.569514 31.2437 112.056714 31.099865 C 111.509518 30.952904 110.999844 30.771548 110.562087 30.480752 C 110.089936 30.18683 109.724096 29.858512 109.470823 29.458278 C 109.1769 29.095565 109.033066 28.473325 109.033066 27.672856 L 109.033066 15.315611 C 109.033066 14.80281 109.142505 14.365053 109.361383 13.964819 C 109.580262 13.602106 109.905452 13.236266 110.343209 12.907949 C 110.780966 12.617153 111.293766 12.360753 111.912879 12.141875 C 112.49447 11.99804 113.079188 11.888601 113.660779 11.888601 C 114.902132 11.888601 115.777646 12.141875 116.287319 12.617153 C 116.725076 13.089305 117.053394 13.492667 117.272272 13.855379 C 117.272272 13.930423 117.306667 14.002341 117.381711 14.074258 C 117.381711 14.146175 117.453628 14.221219 117.525545 14.255614 C 118.18218 14.693371 118.876337 14.658976 119.676807 14.183697 C 120.442881 13.74594 120.696154 13.017388 120.480403 11.99804 Z M 136.042653 7.948791 L 135.861296 7.948791 C 135.461062 8.023835 135.132744 8.167669 134.841949 8.42407 C 134.513631 8.68047 134.329148 8.971266 134.257231 9.337105 C 132.434287 15.897202 131.0491 20.781315 130.173586 24.026968 L 129.701434 25.740473 C 129.410639 26.906782 129.082321 28.073091 128.716482 29.314443 C 128.425686 30.371313 128.206808 31.281222 127.98793 32.047296 L 127.659612 33.251127 C 127.659612 33.579444 127.731529 33.87024 127.878491 34.089118 C 128.025452 34.307996 128.169286 34.489353 128.388164 34.598792 C 128.863443 34.927109 129.445034 35.036549 130.101669 34.889587 C 130.720782 34.81767 131.124144 34.598792 131.267978 34.232952 C 131.705735 32.703931 131.99653 31.572017 132.215408 30.771548 C 132.324848 30.552669 132.509331 30.18683 132.800126 29.677156 C 133.0534 29.239399 133.566201 28.986126 134.329148 28.986126 C 135.132744 28.986126 135.933213 29.020521 136.73681 29.020521 L 139.141344 29.020521 L 140.091902 29.12996 C 140.711015 29.205004 141.148771 29.714678 141.439567 30.662109 C 141.477089 30.880987 141.511484 31.027948 141.586528 31.099865 C 144.356902 41.305849 146.43312 48.963464 147.855829 54.066456 C 148.146624 54.648047 148.621903 54.904448 149.241016 54.904448 C 149.497416 54.904448 149.788212 54.866926 150.079007 54.757487 C 150.992043 54.466691 151.464195 53.994539 151.464195 53.337904 C 151.464195 53.26286 151.426673 53.153421 151.426673 53.081504 C 148.621903 42.87552 146.542559 35.217905 145.157372 30.114913 C 142.643398 20.890754 140.782932 13.964819 139.544706 9.337105 C 139.435267 8.971266 139.216388 8.642948 138.888071 8.352153 C 138.522231 8.095752 138.159519 7.948791 137.756157 7.948791 Z M 135.242183 25.230799 C 134.657465 25.230799 134.294753 25.011921 134.222836 24.502247 C 134.147792 24.283369 134.147792 24.098885 134.147792 23.880007 C 134.147792 23.698651 134.147792 23.517294 134.222836 23.332811 L 135.751857 17.867107 C 135.970735 17.282389 136.299053 17.029115 136.699288 17.029115 C 136.846249 17.029115 136.99321 17.06351 137.137044 17.101032 C 137.68424 17.391828 137.975036 17.648228 138.05008 17.939024 C 138.706715 20.452998 139.216388 22.350986 139.544706 23.589212 C 139.616623 23.845612 139.654145 24.06449 139.654145 24.245847 C 139.654145 24.683603 139.507184 24.936877 139.216388 25.011921 C 138.74111 25.155755 138.412792 25.230799 138.231436 25.230799 Z M 173.445833 10.247014 C 172.82672 9.590379 172.023124 9.080705 171.075693 8.68047 C 170.090741 8.314631 168.961954 8.095752 167.723728 8.095752 C 166.335414 8.095752 165.13471 8.314631 164.07784 8.752387 C 162.983449 9.190144 162.107935 9.771735 161.416905 10.503414 C 160.722748 11.266361 160.24747 12.107479 159.994196 13.017388 C 159.703401 13.964819 159.593961 14.840332 159.737796 15.715845 C 159.884757 16.663276 160.24747 17.463745 160.832187 18.085985 C 161.379383 18.739493 161.998496 19.324211 162.727048 19.833885 C 163.383683 20.343559 164.112236 20.818837 164.87831 21.256594 C 165.644384 21.731873 166.410458 22.166502 167.210927 22.604259 C 167.93948 23.042016 168.671159 23.44225 169.362189 23.880007 C 170.056346 24.317764 170.637937 24.721125 171.113215 25.083838 C 171.550972 25.484073 171.87929 25.81239 172.060646 26.06879 C 172.207607 26.359586 172.279524 26.540942 172.279524 26.687903 L 172.279524 26.797343 C 172.317046 28.035569 171.913685 29.058043 171.113215 29.933556 C 170.237702 30.80907 169.25275 31.209304 168.123963 31.209304 C 167.467328 31.209304 166.848215 31.13426 166.19158 30.990426 C 165.497423 30.843465 164.840788 30.44323 164.259197 29.749073 C 164.149758 29.677156 163.893357 29.386361 163.493123 28.948604 C 163.055366 28.510847 162.50817 27.963651 161.81714 27.235099 C 161.122983 26.506547 160.356909 25.702951 159.484522 24.75552 C 158.609009 23.880007 157.695974 22.932577 156.786065 21.947624 C 156.604709 21.80379 156.420226 21.731873 156.201347 21.656829 C 155.982469 21.584911 155.801113 21.584911 155.619756 21.622433 C 155.000643 21.766268 154.525365 22.166502 154.159525 22.860659 C 153.943774 23.226499 153.834334 23.517294 153.834334 23.770568 C 153.834334 24.06449 153.906252 24.317764 154.12513 24.536642 C 155.035038 25.521595 155.910552 26.469025 156.786065 27.344538 C 157.661578 28.291969 158.427653 29.095565 159.156205 29.824117 C 159.81284 30.552669 160.394431 31.13426 160.869709 31.609539 C 161.307466 32.119213 161.56074 32.338091 161.56074 32.303696 C 162.617609 33.470005 163.783918 34.198557 165.025271 34.489353 C 166.229102 34.81767 167.248449 34.964631 168.123963 34.964631 C 169.543545 34.964631 170.856815 34.598792 172.060646 33.87024 C 173.226955 33.141688 174.174385 32.194257 174.902938 31.027948 C 175.268777 30.405708 175.525177 29.714678 175.740929 28.986126 C 175.959807 28.254447 176.034851 27.525895 176.034851 26.725425 L 176.034851 26.650381 C 175.997329 25.702951 175.740929 24.86496 175.231255 24.136407 C 174.721581 23.407855 174.136863 22.788742 173.483355 22.204024 C 172.82672 21.694351 172.098168 21.184677 171.332094 20.709398 C 170.56602 20.271641 169.799945 19.79949 169.033871 19.361733 C 168.233402 18.923976 167.50485 18.523742 166.810693 18.085985 C 166.082141 17.648228 165.425506 17.244867 164.915832 16.844632 C 164.406158 16.481919 164.040318 16.11608 163.82144 15.825284 C 163.56504 15.534489 163.455601 15.315611 163.455601 15.206171 C 163.383683 14.877854 163.421205 14.512014 163.530645 14.11178 C 163.640084 13.74594 163.858962 13.383228 164.149758 13.05491 C 164.440553 12.760988 164.87831 12.470192 165.425506 12.179397 C 165.972701 11.960518 166.738776 11.813557 167.723728 11.813557 C 168.633637 11.813557 169.290272 11.922996 169.690506 12.069957 C 170.090741 12.251314 170.419058 12.470192 170.675459 12.760988 L 171.441533 13.527062 C 171.660411 13.74594 171.913685 14.039863 172.207607 14.330658 C 172.498403 14.621454 172.789198 14.949771 173.155038 15.315611 C 173.664712 15.85968 174.393264 16.663276 175.415738 17.720145 C 176.363169 18.777015 177.20116 19.652528 177.89219 20.343559 C 178.25803 20.781315 178.767704 20.818837 179.496256 20.49052 C 180.190413 20.199724 180.628169 19.724446 180.847048 19.105333 C 180.881443 18.958371 180.918965 18.814537 180.918965 18.667576 L 180.918965 18.523742 C 180.881443 18.304863 180.809526 18.12038 180.700087 17.901502 C 179.971534 17.17295 179.133543 16.263041 178.148591 15.168649 C 177.129243 14.074258 176.325647 13.273788 175.815973 12.689071 L 174.102468 10.975566 C 173.88359 10.756687 173.702234 10.575331 173.555272 10.393975 C 173.373916 10.247014 173.336394 10.175096 173.445833 10.247014 Z M 173.445833 10.247014 " stroke="#292929" stroke-width="1.026666" stroke-opacity="1" stroke-miterlimit="4"/></svg>